<?xml version="1.0" standalone="no"?>
<!DOCTYPE svg PUBLIC "-//W3C//DTD SVG 20010904//EN"
 "http://www.w3.org/TR/2001/REC-SVG-20010904/DTD/svg10.dtd">
<svg version="1.0" xmlns="http://www.w3.org/2000/svg"
 width="1676.000000pt" height="1676.000000pt" viewBox="0 0 1676.000000 1676.000000"
 preserveAspectRatio="xMidYMid meet">
<metadata>
Created by potrace 1.11, written by Peter Selinger 2001-2013
</metadata>
<g transform="translate(0.000000,1676.000000) scale(0.100000,-0.100000)"
fill="#000000" stroke="none">
<path d="M7965 16749 c-1771 -85 -3483 -740 -4860 -1859 -383 -311 -802 -720
-1116 -1090 -1584 -1868 -2266 -4310 -1883 -6745 226 -1438 840 -2814 1764
-3950 311 -383 720 -802 1090 -1116 1198 -1016 2655 -1675 4197 -1898 456 -66
723 -85 1223 -85 500 0 767 19 1223 85 1542 223 2999 882 4197 1898 218 185
541 496 744 716 1629 1766 2415 4135 2171 6540 -170 1672 -850 3265 -1944
4555 -185 218 -496 541 -716 744 -1651 1523 -3836 2314 -6090 2205z m820 -79
c248 -13 395 -27 475 -46 304 -71 510 -136 743 -235 671 -286 1239 -726 1688
-1309 384 -498 664 -1119 780 -1730 55 -291 71 -474 72 -800 0 -302 -12 -455
-53 -692 -6 -32 -14 -83 -20 -114 -18 -107 -82 -350 -131 -497 -73 -219 -119
-330 -229 -552 -204 -413 -453 -759 -784 -1091 -618 -619 -1398 -1021 -2256
-1164 -243 -40 -348 -49 -715 -60 -390 -12 -507 -24 -815 -85 -662 -131 -1283
-431 -1840 -888 -127 -105 -452 -436 -560 -571 -471 -590 -753 -1221 -879
-1966 -38 -229 -45 -327 -45 -660 0 -341 3 -377 53 -705 33 -213 125 -552 214
-785 155 -405 394 -813 685 -1170 101 -124 399 -424 527 -531 227 -191 505
-375 779 -518 272 -141 649 -282 916 -341 166 -37 70 -34 -205 6 -1390 205
-2673 739 -3784 1575 -1054 793 -1886 1796 -2467 2974 -693 1403 -970 2955
-808 4535 69 679 232 1377 474 2025 554 1487 1523 2782 2801 3744 792 597
1703 1054 2644 1327 893 259 1838 371 2740 324z m-15 -12285 l0 -2065 -315 0
-315 0 0 1775 0 1775 -353 2 -353 3 169 288 169 287 499 0 499 0 0 -2065z"/>
<path d="M8311 15273 c0 -13 -10 -37 -21 -55 -21 -35 -27 -112 -10 -123 7 -4
7 -12 0 -25 -13 -25 13 -48 35 -30 8 6 19 9 25 5 7 -4 -4 -20 -29 -42 -46 -39
-50 -49 -21 -58 19 -6 19 -7 -1 -34 -13 -17 -28 -27 -37 -24 -14 3 -17 -4 -16
-46 1 -61 18 -85 54 -77 24 4 27 2 28 -22 0 -15 1 -32 2 -37 7 -33 -1 -55 -20
-55 -19 0 -27 -20 -13 -34 4 -3 8 -13 9 -22 3 -21 -24 -84 -36 -84 -5 0 -10
-10 -10 -22 0 -13 -1 -36 -2 -53 -2 -24 1 -31 18 -33 17 -2 23 -12 27 -45 7
-52 0 -63 -25 -41 -16 15 -23 16 -38 6 -11 -7 -31 -12 -44 -12 -26 0 -41 -26
-30 -53 9 -25 -55 -99 -78 -91 -14 4 -29 -5 -54 -30 -38 -39 -41 -52 -18 -77
16 -17 15 -19 -10 -29 -15 -5 -31 -10 -36 -10 -25 0 -170 -64 -170 -75 0 -7
11 -36 26 -64 19 -38 31 -51 47 -51 25 0 67 -26 67 -41 0 -5 -6 -9 -13 -9 -17
0 -75 -28 -82 -40 -3 -5 7 -33 21 -63 26 -53 29 -55 60 -50 l33 6 -9 -34 c-8
-26 -7 -36 4 -44 17 -13 7 -35 -38 -83 -43 -46 -185 -86 -170 -48 3 8 -4 24
-15 35 -17 17 -25 19 -47 11 -15 -6 -28 -9 -29 -8 -14 17 -25 53 -25 81 0 35
32 87 53 87 13 0 47 101 47 138 0 19 -4 22 -27 16 -16 -4 -36 -11 -45 -16 -10
-5 -18 -6 -18 -3 0 4 -15 -3 -34 -15 -22 -13 -37 -17 -41 -10 -3 5 -1 10 5 10
7 0 10 7 6 15 -5 15 18 168 29 185 3 6 13 10 21 10 17 0 17 0 0 42 -8 19 -31
46 -50 59 -30 20 -37 32 -42 72 -4 27 -12 54 -18 60 -7 7 -12 22 -13 35 -1 13
-6 56 -12 95 -16 112 -34 298 -33 342 0 22 -5 46 -10 53 -7 8 -7 17 2 27 15
19 5 80 -19 110 l-16 22 -17 -22 c-27 -36 -32 -72 -14 -100 15 -23 15 -26 1
-32 -10 -3 -15 -13 -12 -23 3 -10 1 -54 -3 -97 -5 -43 -11 -107 -15 -143 -3
-36 -10 -96 -15 -135 -5 -38 -14 -122 -20 -185 -6 -63 -15 -144 -19 -180 -7
-55 -5 -71 11 -103 20 -40 13 -67 -17 -67 -10 0 -13 -26 -12 -107 l2 -107 -32
-2 c-30 -1 -33 1 -33 27 0 16 5 48 12 72 13 52 6 89 -25 117 l-22 21 23 17
c23 18 23 18 11 132 -6 63 -13 150 -14 192 -2 43 -6 90 -9 105 -14 64 -43 399
-35 409 5 6 2 20 -7 33 -12 17 -13 25 -4 36 15 18 4 71 -20 102 -16 21 -17 21
-32 3 -24 -27 -31 -75 -16 -100 11 -18 11 -23 -2 -33 -9 -7 -14 -24 -12 -40 2
-16 -4 -84 -12 -151 -9 -67 -16 -140 -16 -163 0 -22 -7 -56 -15 -76 -8 -19
-12 -37 -9 -40 7 -6 -14 -257 -25 -307 -6 -27 -3 -41 12 -63 24 -35 16 -77
-14 -77 -19 0 -20 -4 -14 -37 12 -67 17 -266 6 -287 -5 -12 -11 -30 -13 -41
-3 -16 -12 -21 -46 -23 l-42 -3 0 -77 c0 -73 2 -79 35 -121 42 -53 43 -76 8
-159 l-27 -64 25 -116 24 -117 3 -989 3 -988 -26 -77 c-25 -77 -25 -78 -23
-386 l3 -310 423 -3 422 -2 2 32 c1 18 2 533 2 1144 l1 1110 50 84 c113 189
256 299 454 350 81 20 103 20 149 -3 18 -8 28 -8 43 1 60 38 198 15 334 -55
99 -51 242 -197 274 -279 13 -33 33 -84 45 -114 l21 -55 -4 -1107 -4 -1108
426 0 426 0 5 53 c4 28 11 169 17 312 l10 261 -40 87 -40 88 -7 1053 -7 1054
21 36 c27 45 20 96 -19 150 -40 56 -40 113 1 159 l29 34 -11 146 -12 147 -38
0 -38 0 -1 68 c-2 81 -2 65 6 135 7 54 6 59 -14 64 -24 6 -25 9 -10 68 8 33 8
74 -1 162 -7 65 -14 150 -15 190 -2 39 -5 76 -8 80 -9 14 -40 290 -41 358 -1
36 -6 63 -14 68 -9 6 -9 13 -2 27 18 35 12 87 -15 116 -17 19 -25 22 -25 12 0
-9 -6 -21 -14 -27 -24 -20 -30 -69 -12 -96 10 -16 12 -25 4 -27 -6 -2 -12 -40
-13 -98 -3 -126 -15 -266 -26 -315 -5 -22 -9 -71 -9 -109 0 -39 -5 -133 -12
-209 -9 -106 -9 -144 0 -158 16 -25 15 -49 -2 -49 -17 0 -30 -85 -16 -110 6
-10 10 -50 10 -89 0 -64 -2 -71 -20 -72 -11 -1 -25 -2 -31 -3 -23 -2 -36 66
-28 139 13 117 12 135 -11 135 -23 0 -27 29 -8 60 13 21 6 112 -47 605 -10 88
-18 183 -18 210 0 28 -4 53 -9 56 -5 3 -4 18 2 33 12 31 4 71 -19 98 -19 22
-31 23 -31 4 0 -8 -5 -16 -11 -18 -17 -6 -24 -89 -9 -98 10 -6 11 -12 3 -22
-6 -7 -11 -44 -12 -83 -1 -115 -21 -328 -33 -352 -6 -13 -8 -42 -5 -68 4 -25
3 -45 -2 -45 -4 0 -11 -25 -14 -56 -6 -62 -28 -94 -63 -94 -19 0 -24 -7 -30
-36 -6 -31 -3 -40 14 -53 25 -18 42 -93 42 -177 l0 -54 -44 25 c-25 14 -54 25
-66 25 -12 0 -30 5 -42 11 -24 13 -24 13 -32 -27 -6 -26 -2 -37 18 -59 15 -16
26 -35 26 -44 0 -9 16 -31 35 -50 35 -33 39 -47 26 -106 -5 -24 -11 -29 -36
-30 -25 0 -31 -4 -33 -27 -8 -68 -174 -36 -236 45 -24 31 -25 38 -17 82 10 55
23 67 69 62 19 -2 32 2 32 8 0 7 9 20 20 30 14 13 20 29 18 49 -3 28 -8 32
-55 46 -38 10 -53 20 -53 32 0 20 37 43 63 39 9 -1 17 4 17 11 0 7 9 24 20 38
11 14 20 35 20 48 0 27 -28 41 -167 80 -71 20 -89 28 -73 34 11 4 20 15 20 23
0 24 -58 78 -75 71 -17 -6 -77 47 -88 78 -4 10 -2 25 4 32 6 7 8 17 5 23 -11
16 -87 52 -98 45 -8 -5 -9 5 -5 31 3 21 10 41 15 44 20 13 23 85 6 121 -10 19
-20 37 -23 40 -12 10 -34 76 -34 102 0 15 12 41 27 58 25 30 35 78 19 94 -10
10 -11 86 -1 86 18 0 7 63 -14 81 -18 17 -20 22 -9 42 10 20 10 30 -3 60 -16
39 -42 49 -53 20 -11 -27 -23 43 -16 88 8 53 -16 72 -78 64 -41 -6 -48 -4 -52
12 -4 15 -5 14 -6 -4z m47 -90 c5 -10 7 -23 5 -30 -2 -7 1 -21 7 -32 7 -14 7
-21 0 -21 -5 0 -10 1 -10 3 0 1 -7 23 -15 50 -14 45 -5 65 13 30z m-108 -883
c0 -5 -4 -10 -10 -10 -5 0 -10 5 -10 10 0 6 5 10 10 10 6 0 10 -4 10 -10z
m-60 -20 c0 -5 -4 -10 -10 -10 -5 0 -10 5 -10 10 0 6 5 10 10 10 6 0 10 -4 10
-10z m425 0 c3 -5 1 -10 -4 -10 -6 0 -11 5 -11 10 0 6 2 10 4 10 3 0 8 -4 11
-10z m-40 -10 c3 -5 2 -10 -4 -10 -5 0 -13 5 -16 10 -3 6 -2 10 4 10 5 0 13
-4 16 -10z m-345 -4 c0 -3 -4 -8 -10 -11 -5 -3 -10 -1 -10 4 0 6 5 11 10 11 6
0 10 -2 10 -4z m507 -142 c-9 -9 -28 6 -21 18 4 6 10 6 17 -1 6 -6 8 -13 4
-17z m-657 -22 c0 -13 -12 -22 -22 -16 -10 6 -1 24 13 24 5 0 9 -4 9 -8z m650
4 c0 -3 -4 -8 -10 -11 -5 -3 -10 -1 -10 4 0 6 5 11 10 11 6 0 10 -2 10 -4z
m40 -16 c0 -5 -4 -10 -10 -10 -5 0 -10 5 -10 10 0 6 5 10 10 10 6 0 10 -4 10
-10z m-730 -10 c0 -5 -4 -10 -10 -10 -5 0 -10 5 -10 10 0 6 5 10 10 10 6 0 10
-4 10 -10z"/>
</g>
</svg>
