<svg width="31" height="30" viewBox="0 0 31 30" fill="none" xmlns="http://www.w3.org/2000/svg">
<path fill-rule="evenodd" clip-rule="evenodd" d="M15.3824 0C6.88385 0 0 6.88385 0 15.3824C0 22.1813 4.40982 27.9415 10.5194 29.9811C11.2842 30.1228 11.5675 29.6506 11.5675 29.2351C11.5675 28.8669 11.5581 27.9037 11.5486 26.6195C7.27101 27.5449 6.36449 24.5609 6.36449 24.5609C5.66572 22.7856 4.65533 22.3041 4.65533 22.3041C3.25779 21.3503 4.75921 21.3692 4.75921 21.3692C6.29839 21.4825 7.11992 22.9556 7.11992 22.9556C8.48914 25.3069 10.7177 24.627 11.5958 24.2304C11.7375 23.2389 12.1341 22.559 12.5685 22.1719C9.15958 21.7941 5.57129 20.4721 5.57129 14.5798C5.57129 12.899 6.16619 11.5297 7.1577 10.4533C6.99717 10.0567 6.46837 8.49858 7.29934 6.38338C7.29934 6.38338 8.59301 5.9679 11.5297 7.96034C12.7573 7.6204 14.0699 7.45043 15.3824 7.44098C16.6856 7.45043 18.0076 7.6204 19.2351 7.96034C22.1719 5.9679 23.4655 6.38338 23.4655 6.38338C24.3059 8.49858 23.7771 10.0661 23.6166 10.4533C24.5987 11.5297 25.1936 12.899 25.1936 14.5798C25.1936 20.491 21.5958 21.7847 18.1681 22.1719C18.7158 22.644 19.2162 23.5883 19.2162 25.0236C19.2162 27.0822 19.1974 28.7347 19.1974 29.2446C19.1974 29.6601 19.4712 30.1322 20.255 29.9811C26.3645 27.9415 30.7649 22.1813 30.7649 15.3919C30.7649 6.88385 23.881 0 15.3824 0Z" fill="white"/>
</svg>
