<svg width="30" height="30" viewBox="0 0 30 30" fill="none" xmlns="http://www.w3.org/2000/svg">
<g clip-path="url(#clip0)">
<path d="M22.9452 5.35901C21.97 5.35901 21.1899 6.14759 21.1899 7.11424C21.1899 8.08936 21.9785 8.86947 22.9452 8.86947C23.9203 8.86947 24.7004 8.08089 24.7004 7.11424C24.7004 6.14759 23.9118 5.35901 22.9452 5.35901Z" fill="white"/>
<path d="M15.1272 7.6145C11.0571 7.6145 7.7417 10.9299 7.7417 15C7.7417 19.0701 11.0571 22.3856 15.1272 22.3856C19.1973 22.3856 22.5128 19.0701 22.5128 15C22.5128 10.9299 19.1973 7.6145 15.1272 7.6145ZM15.1272 19.7315C12.5156 19.7315 10.3957 17.6117 10.3957 15C10.3957 12.3884 12.5156 10.2685 15.1272 10.2685C17.7389 10.2685 19.8587 12.3884 19.8587 15C19.8587 17.6117 17.7304 19.7315 15.1272 19.7315Z" fill="white"/>
<path d="M20.9864 30H9.01357C4.04466 30 0 25.9553 0 20.9864V9.01357C0 4.04466 4.04466 0 9.01357 0H20.9949C25.9638 0 30.0085 4.04466 30.0085 9.01357V20.9949C30 25.9553 25.9553 30 20.9864 30ZM9.01357 2.82363C5.60486 2.82363 2.82363 5.59638 2.82363 9.01357V20.9949C2.82363 24.4036 5.59638 27.1849 9.01357 27.1849H20.9949C24.4036 27.1849 27.1849 24.4121 27.1849 20.9949V9.01357C27.1849 5.60486 24.4121 2.82363 20.9949 2.82363H9.01357Z" fill="white"/>
</g>
<defs>
<clipPath id="clip0">
<rect width="30" height="30" fill="white"/>
</clipPath>
</defs>
</svg>
