<svg width="37" height="30" viewBox="0 0 37 30" fill="none" xmlns="http://www.w3.org/2000/svg">
<path d="M36.3002 3.59521C35.1385 4.12093 33.8666 4.43467 32.6117 4.64666C33.2052 4.5449 34.0786 3.4765 34.4263 3.03558C34.9604 2.37418 35.4014 1.61952 35.6473 0.805502C35.6812 0.746147 35.7066 0.661353 35.6388 0.610477C35.5625 0.576559 35.5031 0.593518 35.4438 0.627436C34.0532 1.37362 32.6117 1.9163 31.0769 2.29787C30.9497 2.33179 30.8564 2.29787 30.7716 2.22156C30.6445 2.08589 30.5257 1.95022 30.3901 1.83151C29.7456 1.28035 29.0503 0.856378 28.2702 0.534163C27.2442 0.118674 26.125 -0.059393 25.0226 0.00844191C23.9458 0.0762768 22.8943 0.381534 21.9446 0.881817C20.9865 1.3821 20.1385 2.07741 19.4602 2.90839C18.7564 3.77328 18.2391 4.79928 17.9763 5.88464C17.7219 6.9276 17.7389 7.96209 17.9 9.02201C17.9254 9.20008 17.9084 9.21703 17.7473 9.20008C11.7439 8.30974 6.77504 6.16446 2.73038 1.56017C2.55231 1.35666 2.45904 1.35666 2.31489 1.57712C0.551182 4.22269 1.4076 8.47933 3.61223 10.5737C3.90901 10.8536 4.20579 11.1334 4.53648 11.3878C4.41777 11.4132 2.95084 11.2521 1.63654 10.5737C1.45847 10.4635 1.37368 10.5229 1.35672 10.7264C1.33976 11.0147 1.3652 11.2775 1.4076 11.5828C1.74677 14.2707 3.60375 16.7552 6.15604 17.7218C6.4613 17.849 6.792 17.9593 7.12269 18.0186C6.54609 18.1458 5.94406 18.2391 4.2821 18.1034C4.07012 18.061 3.9938 18.1712 4.07012 18.3663C5.31659 21.775 8.0215 22.7925 10.0396 23.3691C10.3109 23.42 10.5823 23.42 10.8536 23.4793C10.8367 23.5048 10.8197 23.5048 10.8027 23.5302C10.1329 24.5562 7.80952 25.3109 6.72416 25.6924C4.75695 26.3793 2.61167 26.693 0.534223 26.4895C0.203528 26.4386 0.127214 26.4471 0.0424199 26.4895C-0.0508531 26.5489 0.0339406 26.6252 0.135693 26.71C0.559661 26.9898 0.98363 27.2357 1.42456 27.4731C2.74734 28.1769 4.121 28.7281 5.56249 29.1266C13.0074 31.1786 21.385 29.6693 26.9729 24.1238C31.3567 19.7654 32.9 13.7535 32.9 7.73314C32.9 7.49572 33.1798 7.36853 33.3409 7.24134C34.4856 6.38493 35.4014 5.35892 36.2578 4.21421C36.4528 3.95983 36.4528 3.73088 36.4528 3.63761C36.4528 3.62065 36.4528 3.60369 36.4528 3.60369C36.4528 3.50194 36.4443 3.52738 36.3002 3.59521Z" fill="white"/>
</svg>
